<svg width="1920" height="568" viewBox="0 0 1920 568" fill="none" xmlns="http://www.w3.org/2000/svg">
<path d="M2.94886 303.503C368 680 1662 -246 1929.93 105.299" stroke="#01579B" stroke-width="2"/>
<path d="M2.94886 315.503C368 692 1662 -234 1929.93 117.299" stroke="#01579B" stroke-opacity="0.9" stroke-width="2"/>
<path d="M2.94886 327.503C368 704 1662 -222 1929.93 129.299" stroke="#01579B" stroke-opacity="0.8" stroke-width="2"/>
<path d="M2.94886 343.503C368 720 1662 -206 1929.93 145.299" stroke="#01579B" stroke-opacity="0.7" stroke-width="2"/>
<path d="M2.94886 362.503C368 739 1662 -187 1929.93 164.299" stroke="#01579B" stroke-opacity="0.6" stroke-width="2"/>
<path d="M2.94886 382.503C368 759 1662 -167 1929.93 184.299" stroke="#01579B" stroke-opacity="0.5" stroke-width="2"/>
<path d="M2.94886 412.503C368 789 1662 -137 1929.93 214.299" stroke="#01579B" stroke-opacity="0.4" stroke-width="2"/>
<path d="M2.94886 445.503C368 822 1662 -104 1929.93 247.299" stroke="#01579B" stroke-opacity="0.3" stroke-width="2"/>
</svg>
